<svg width="500" height="500" viewBox="0 0 500 500" fill="none" xmlns="http://www.w3.org/2000/svg">
<g id="neonListnoframe 1" clip-path="url(#clip0_0_1)">
<g id="Frame 1">
<g id="rectangledarkTop">
<path id="Rectangle 1" d="M231.312 -0.496848L7.52118 2.62477L2.50184 408.037L226.293 404.916L231.312 -0.496848Z" fill="#F208BF" fill-opacity="0.75"/>
<g id="lineGroup">
<g id="Group 1">
<path id="Line 1" d="M33.0738 38.2428L118.51 37.0504" stroke="#911FAD" stroke-opacity="0.32" stroke-width="4"/>
<path id="Line 2" d="M33.5281 76.2368L168.187 74.3585" stroke="#911FAD" stroke-opacity="0.32" stroke-width="4"/>
<path id="Line 3" d="M32.8492 56.4862L207.427 54.0512" stroke="#911FAD" stroke-opacity="0.32" stroke-width="4"/>
</g>
<g id="Group 2">
<path id="Line 1_2" d="M34.4917 223.667L119.928 222.475" stroke="#911FAD" stroke-opacity="0.32" stroke-width="4"/>
<path id="Line 2_2" d="M34.9464 261.661L169.605 259.783" stroke="#911FAD" stroke-opacity="0.32" stroke-width="4"/>
<path id="Line 3_2" d="M34.2676 241.91L208.846 239.475" stroke="#911FAD" stroke-opacity="0.32" stroke-width="4"/>
</g>
<g id="Group 3">
<path id="Line 4" d="M31.8405 138.075L130.276 136.702" stroke="#911FAD" stroke-opacity="0.32" stroke-width="4"/>
<path id="Line 5" d="M31.6271 155.305L167.215 153.414" stroke="#911FAD" stroke-opacity="0.32" stroke-width="4"/>
<path id="Line 6" d="M31.3635 176.589L200.46 174.23" stroke="#911FAD" stroke-opacity="0.32" stroke-width="4"/>
</g>
<g id="Group 4">
<path id="Line 4_2" d="M35.4293 298.135L133.865 296.763" stroke="#911FAD" stroke-opacity="0.32" stroke-width="4"/>
<path id="Line 5_2" d="M35.2162 315.365L170.804 313.474" stroke="#911FAD" stroke-opacity="0.32" stroke-width="4"/>
<path id="Line 6_2" d="M34.9526 336.649L204.049 334.291" stroke="#911FAD" stroke-opacity="0.32" stroke-width="4"/>
<path id="Line 1_3" d="M34.7553 352.36L120.191 351.167" stroke="#911FAD" stroke-opacity="0.32" stroke-width="4"/>
</g>
</g>
</g>
<g id="rectangledarkTop_2">
<path id="Rectangle 1_2" d="M506.578 125.37L275.386 125.383L275.408 520.63L506.6 520.617L506.578 125.37Z" fill="#07F7DA" fill-opacity="0.55"/>
<g id="lineGroup_2">
<g id="Group 1_2">
<path id="Line 1_4" d="M302.245 160.46L390.507 160.455" stroke="#48D93B" stroke-opacity="0.49" stroke-width="4"/>
<path id="Line 2_3" d="M303.203 197.514L442.315 197.506" stroke="#48D93B" stroke-opacity="0.49" stroke-width="4"/>
<path id="Line 3_3" d="M302.247 178.246L482.6 178.236" stroke="#48D93B" stroke-opacity="0.49" stroke-width="4"/>
</g>
<g id="Group 2_2">
<path id="Line 1_5" d="M306.093 341.285L394.354 341.28" stroke="#48D93B" stroke-opacity="0.49" stroke-width="4"/>
<path id="Line 2_4" d="M307.05 378.34L446.162 378.331" stroke="#48D93B" stroke-opacity="0.49" stroke-width="4"/>
<path id="Line 3_4" d="M306.094 359.071L486.447 359.061" stroke="#48D93B" stroke-opacity="0.49" stroke-width="4"/>
</g>
<g id="Group 3_2">
<path id="Line 4_3" d="M302.253 257.789L403.944 257.783" stroke="#48D93B" stroke-opacity="0.49" stroke-width="4"/>
<path id="Line 5_3" d="M302.254 274.587L442.326 274.579" stroke="#48D93B" stroke-opacity="0.49" stroke-width="4"/>
<path id="Line 6_3" d="M302.256 295.338L476.944 295.327" stroke="#48D93B" stroke-opacity="0.49" stroke-width="4"/>
</g>
<g id="Group 4_2">
<path id="Line 4_4" d="M308.017 413.912L409.709 413.905" stroke="#48D93B" stroke-opacity="0.49" stroke-width="4"/>
<path id="Line 5_4" d="M308.019 430.709L448.09 430.701" stroke="#48D93B" stroke-opacity="0.49" stroke-width="4"/>
<path id="Line 6_4" d="M308.02 451.46L482.708 451.45" stroke="#48D93B" stroke-opacity="0.49" stroke-width="4"/>
<path id="Line 1_6" d="M308.018 466.777L396.28 466.77" stroke="#48D93B" stroke-opacity="0.49" stroke-width="4"/>
</g>
</g>
</g>
<g id="rectangleGroup">
<path id="Rectangle 1_3" d="M388.999 18H121.999V495H388.999V18Z" fill="#A612EB" fill-opacity="0.84" stroke="#F00F6D" stroke-width="2"/>
<g id="lineGroup_3">
<g id="Group 1_3">
<path id="Line 1_7" d="M152.159 59.348H254.944" stroke="#16F0F0" stroke-opacity="0.73" stroke-width="4"/>
<path id="Line 2_5" d="M153.272 104.291H315.275" stroke="#16F0F0" stroke-opacity="0.73" stroke-width="4"/>
<path id="Line 3_5" d="M152.161 80.9208H362.189" stroke="#16F0F0" stroke-opacity="0.73" stroke-width="4"/>
</g>
<g id="Group 2_3">
<path id="Line 1_8" d="M156.628 278.672H259.413" stroke="#16F0F0" stroke-opacity="0.73" stroke-width="4"/>
<path id="Line 2_6" d="M157.74 323.616H319.743" stroke="#16F0F0" stroke-opacity="0.73" stroke-width="4"/>
<path id="Line 3_6" d="M156.63 300.245H366.657" stroke="#16F0F0" stroke-opacity="0.73" stroke-width="4"/>
</g>
<g id="Group 3_3">
<path id="Line 4_5" d="M152.162 177.399H270.586" stroke="#16F0F0" stroke-opacity="0.73" stroke-width="4"/>
<path id="Line 5_5" d="M152.162 197.774H315.283" stroke="#16F0F0" stroke-opacity="0.73" stroke-width="4"/>
<path id="Line 6_5" d="M152.162 222.942H355.595" stroke="#16F0F0" stroke-opacity="0.73" stroke-width="4"/>
</g>
<g id="Group 4_3">
<path id="Line 4_6" d="M158.865 366.761H277.289" stroke="#16F0F0" stroke-opacity="0.73" stroke-width="4"/>
<path id="Line 5_6" d="M158.865 387.136H321.986" stroke="#16F0F0" stroke-opacity="0.73" stroke-width="4"/>
<path id="Line 6_6" d="M158.865 412.304H362.298" stroke="#16F0F0" stroke-opacity="0.73" stroke-width="4"/>
<path id="Line 1_9" d="M158.862 430.881H261.647" stroke="#16F0F0" stroke-opacity="0.73" stroke-width="4"/>
</g>
</g>
</g>
</g>
</g>
<defs>
<clipPath id="clip0_0_1">
<rect width="500" height="500" fill="white"/>
</clipPath>
</defs>
</svg>
