<svg width="900" height="170" viewBox="0 0 900 170" fill="none" xmlns="http://www.w3.org/2000/svg">
<g id="layer3 1" clip-path="url(#clip0_7_2)">
<path id="Vector" d="M900 -130H0V170H900V-130Z" fill="#114E9E"/>
<path id="Vector_2" d="M0 65L21.5 67.2C43 69.3 86 73.7 128.8 77.2C171.7 80.7 214.3 83.3 257.2 78.2C300 73 343 60 385.8 56.5C428.7 53 471.3 59 514.2 66.3C557 73.7 600 82.3 642.8 79.7C685.7 77 728.3 63 771.2 56.5C814 50 857 51 878.5 51.5L900 52V171H878.5C857 171 814 171 771.2 171C728.3 171 685.7 171 642.8 171C600 171 557 171 514.2 171C471.3 171 428.7 171 385.8 171C343 171 300 171 257.2 171C214.3 171 171.7 171 128.8 171C86 171 43 171 21.5 171H0V65Z" fill="#038BFA"/>
<path id="Vector_3" d="M0 103L21.5 102.8C43 102.7 86 102.3 128.8 96.8C171.7 91.3 214.3 80.7 257.2 80.3C300 80 343 90 385.8 90.5C428.7 91 471.3 82 514.2 81.2C557 80.3 600 87.7 642.8 89C685.7 90.3 728.3 85.7 771.2 83.2C814 80.7 857 80.3 878.5 80.2L900 80V171H878.5C857 171 814 171 771.2 171C728.3 171 685.7 171 642.8 171C600 171 557 171 514.2 171C471.3 171 428.7 171 385.8 171C343 171 300 171 257.2 171C214.3 171 171.7 171 128.8 171C86 171 43 171 21.5 171H0V103Z" fill="#0071CB"/>
<path id="Vector_4" d="M0 92L21.5 95.2C43 98.3 86 104.7 128.8 104.2C171.7 103.7 214.3 96.3 257.2 97.8C300 99.3 343 109.7 385.8 114.7C428.7 119.7 471.3 119.3 514.2 117C557 114.7 600 110.3 642.8 109.8C685.7 109.3 728.3 112.7 771.2 114.7C814 116.7 857 117.3 878.5 117.7L900 118V171H878.5C857 171 814 171 771.2 171C728.3 171 685.7 171 642.8 171C600 171 557 171 514.2 171C471.3 171 428.7 171 385.8 171C343 171 300 171 257.2 171C214.3 171 171.7 171 128.8 171C86 171 43 171 21.5 171H0V92Z" fill="#00589D"/>
<path id="Vector_5" d="M0 115L21.5 116C43 117 86 119 128.8 123.3C171.7 127.7 214.3 134.3 257.2 134.8C300 135.3 343 129.7 385.8 127.5C428.7 125.3 471.3 126.7 514.2 125C557 123.3 600 118.7 642.8 120.2C685.7 121.7 728.3 129.3 771.2 133.2C814 137 857 137 878.5 137H900V171H878.5C857 171 814 171 771.2 171C728.3 171 685.7 171 642.8 171C600 171 557 171 514.2 171C471.3 171 428.7 171 385.8 171C343 171 300 171 257.2 171C214.3 171 171.7 171 128.8 171C86 171 43 171 21.5 171H0V115Z" fill="#004072"/>
<path id="Vector_6" d="M0 146L21.5 144.8C43 143.7 86 141.3 128.8 142C171.7 142.7 214.3 146.3 257.2 145.8C300 145.3 343 140.7 385.8 137.8C428.7 135 471.3 134 514.2 134.7C557 135.3 600 137.7 642.8 140.3C685.7 143 728.3 146 771.2 147.5C814 149 857 149 878.5 149H900V171H878.5C857 171 814 171 771.2 171C728.3 171 685.7 171 642.8 171C600 171 557 171 514.2 171C471.3 171 428.7 171 385.8 171C343 171 300 171 257.2 171C214.3 171 171.7 171 128.8 171C86 171 43 171 21.5 171H0V146Z" fill="#022949"/>
</g>
<defs>
<clipPath id="clip0_7_2">
<rect width="900" height="300" fill="white" transform="translate(0 -130)"/>
</clipPath>
</defs>
</svg>
