<svg width="900" height="170" viewBox="0 0 900 170" fill="none" xmlns="http://www.w3.org/2000/svg">
<g id="layer1Slice1 1" clip-path="url(#clip0_11_19)">
<g id="layer1 1">
<path id="Vector" d="M900 -186H0V170H900V-186Z" fill="#610A94"/>
<path id="Vector_2" d="M0 25.2267L21.5 31.9907C43 38.636 86 52.164 128.8 61.064C171.7 69.964 214.3 74.236 257.2 72.693C300 71.151 343 63.556 385.8 57.267C428.7 50.977 471.3 45.756 514.2 48.7227C557 51.689 600 62.844 642.8 63.793C685.7 64.743 728.3 55.724 771.2 54.063C814 52.52 857 58.453 878.5 61.42L900 64.387V171.187H878.5C857 171.187 814 171.187 771.2 171.187C728.3 171.187 685.7 171.187 642.8 171.187C600 171.187 557 171.187 514.2 171.187C471.3 171.187 428.7 171.187 385.8 171.187C343 171.187 300 171.187 257.2 171.187C214.3 171.187 171.7 171.187 128.8 171.187C86 171.187 43 171.187 21.5 171.187H0V25.2267Z" fill="#FA7268"/>
<path id="Vector_3" d="M0 79.813L21.5 77.796C43 75.897 86 71.863 128.8 74.711C171.7 77.44 214.3 86.933 257.2 85.747C300 84.56 343 72.693 385.8 67.591C428.7 62.369 471.3 64.031 514.2 68.777C557 73.524 600 81.356 642.8 80.407C685.7 79.457 728.3 69.489 771.2 64.387C814 59.284 857 58.809 878.5 58.691L900 58.453V171.187H878.5C857 171.187 814 171.187 771.2 171.187C728.3 171.187 685.7 171.187 642.8 171.187C600 171.187 557 171.187 514.2 171.187C471.3 171.187 428.7 171.187 385.8 171.187C343 171.187 300 171.187 257.2 171.187C214.3 171.187 171.7 171.187 128.8 171.187C86 171.187 43 171.187 21.5 171.187H0V79.813Z" fill="#E55A62"/>
<path id="Vector_4" d="M0 81L21.5 86.34C43 91.68 86 102.36 128.8 105.327C171.7 108.293 214.3 103.547 257.2 102.953C300 102.36 343 105.92 385.8 108.531C428.7 111.023 471.3 112.684 514.2 111.497C557 110.311 600 106.276 642.8 103.784C685.7 101.173 728.3 99.987 771.2 99.987C814 99.987 857 101.173 878.5 101.767L900 102.36V171.187H878.5C857 171.187 814 171.187 771.2 171.187C728.3 171.187 685.7 171.187 642.8 171.187C600 171.187 557 171.187 514.2 171.187C471.3 171.187 428.7 171.187 385.8 171.187C343 171.187 300 171.187 257.2 171.187C214.3 171.187 171.7 171.187 128.8 171.187C86 171.187 43 171.187 21.5 171.187H0V81Z" fill="#CF435C"/>
<path id="Vector_5" d="M0 124.907L21.5 124.313C43 123.72 86 122.533 128.8 123.72C171.7 124.907 214.3 128.467 257.2 129.653C300 130.84 343 129.653 385.8 129.297C428.7 128.823 471.3 129.297 514.2 126.449C557 123.72 600 117.787 642.8 112.803C685.7 107.937 728.3 103.903 771.2 103.903C814 103.903 857 107.937 878.5 109.836L900 111.853V171.187H878.5C857 171.187 814 171.187 771.2 171.187C728.3 171.187 685.7 171.187 642.8 171.187C600 171.187 557 171.187 514.2 171.187C471.3 171.187 428.7 171.187 385.8 171.187C343 171.187 300 171.187 257.2 171.187C214.3 171.187 171.7 171.187 128.8 171.187C86 171.187 43 171.187 21.5 171.187H0V124.907Z" fill="#B82A56"/>
<path id="Vector_6" d="M0 134.4L21.5 137.604C43 140.689 86 147.097 128.8 148.877C171.7 150.657 214.3 147.809 257.2 145.317C300 142.707 343 140.333 385.8 139.74C428.7 139.147 471.3 140.333 514.2 138.909C557 137.604 600 133.569 642.8 131.077C685.7 128.467 728.3 127.28 771.2 130.484C814 133.569 857 141.164 878.5 144.843L900 148.64V171.187H878.5C857 171.187 814 171.187 771.2 171.187C728.3 171.187 685.7 171.187 642.8 171.187C600 171.187 557 171.187 514.2 171.187C471.3 171.187 428.7 171.187 385.8 171.187C343 171.187 300 171.187 257.2 171.187C214.3 171.187 171.7 171.187 128.8 171.187C86 171.187 43 171.187 21.5 171.187H0V134.4Z" fill="#A10A50"/>
</g>
</g>
<defs>
<clipPath id="clip0_11_19">
<rect width="900" height="220" fill="white" transform="translate(0 -50)"/>
</clipPath>
</defs>
</svg>
