<svg width="900" height="170" viewBox="0 0 900 170" fill="none" xmlns="http://www.w3.org/2000/svg">
<g id="layer5 1" clip-path="url(#clip0_1_2)">
<path id="Vector" d="M900 -130H0V170H900V-130Z" fill="#730761"/>
<path id="Vector_2" d="M0 77L21.5 75.2C43 73.3 86 69.7 128.8 64.2C171.7 58.7 214.3 51.3 257.2 50.7C300 50 343 56 385.8 60.3C428.7 64.7 471.3 67.3 514.2 69.3C557 71.3 600 72.7 642.8 70.7C685.7 68.7 728.3 63.3 771.2 61.2C814 59 857 60 878.5 60.5L900 61V171H878.5C857 171 814 171 771.2 171C728.3 171 685.7 171 642.8 171C600 171 557 171 514.2 171C471.3 171 428.7 171 385.8 171C343 171 300 171 257.2 171C214.3 171 171.7 171 128.8 171C86 171 43 171 21.5 171H0V77Z" fill="#661459"/>
<path id="Vector_3" d="M0 100L21.5 97.3C43 94.7 86 89.3 128.8 84.8C171.7 80.3 214.3 76.7 257.2 78.3C300 80 343 87 385.8 87.5C428.7 88 471.3 82 514.2 80C557 78 600 80 642.8 78.5C685.7 77 728.3 72 771.2 73.3C814 74.7 857 82.3 878.5 86.2L900 90V171H878.5C857 171 814 171 771.2 171C728.3 171 685.7 171 642.8 171C600 171 557 171 514.2 171C471.3 171 428.7 171 385.8 171C343 171 300 171 257.2 171C214.3 171 171.7 171 128.8 171C86 171 43 171 21.5 171H0V100Z" fill="#56094B"/>
<path id="Vector_4" d="M0 110L21.5 106.3C43 102.7 86 95.3 128.8 94.5C171.7 93.7 214.3 99.3 257.2 100.2C300 101 343 97 385.8 100C428.7 103 471.3 113 514.2 114.3C557 115.7 600 108.3 642.8 103C685.7 97.7 728.3 94.3 771.2 98C814 101.7 857 112.3 878.5 117.7L900 123V171H878.5C857 171 814 171 771.2 171C728.3 171 685.7 171 642.8 171C600 171 557 171 514.2 171C471.3 171 428.7 171 385.8 171C343 171 300 171 257.2 171C214.3 171 171.7 171 128.8 171C86 171 43 171 21.5 171H0V110Z" fill="#47003D"/>
<path id="Vector_5" d="M0 140L21.5 137.5C43 135 86 130 128.8 127.5C171.7 125 214.3 125 257.2 127C300 129 343 133 385.8 134C428.7 135 471.3 133 514.2 130C557 127 600 123 642.8 123.7C685.7 124.3 728.3 129.7 771.2 129.7C814 129.7 857 124.3 878.5 121.7L900 119V171H878.5C857 171 814 171 771.2 171C728.3 171 685.7 171 642.8 171C600 171 557 171 514.2 171C471.3 171 428.7 171 385.8 171C343 171 300 171 257.2 171C214.3 171 171.7 171 128.8 171C86 171 43 171 21.5 171H0V140Z" fill="#36002E"/>
<path id="Vector_6" d="M0 151L21.5 150.5C43 150 86 149 128.8 146.5C171.7 144 214.3 140 257.2 138C300 136 343 136 385.8 138.2C428.7 140.3 471.3 144.7 514.2 147.2C557 149.7 600 150.3 642.8 151.3C685.7 152.3 728.3 153.7 771.2 153.7C814 153.7 857 152.3 878.5 151.7L900 151V171H878.5C857 171 814 171 771.2 171C728.3 171 685.7 171 642.8 171C600 171 557 171 514.2 171C471.3 171 428.7 171 385.8 171C343 171 300 171 257.2 171C214.3 171 171.7 171 128.8 171C86 171 43 171 21.5 171H0V151Z" fill="black"/>
</g>
<defs>
<clipPath id="clip0_1_2">
<rect width="900" height="300" fill="white" transform="translate(0 -130)"/>
</clipPath>
</defs>
</svg>
