<svg width="900" height="170" viewBox="0 0 900 170" fill="none" xmlns="http://www.w3.org/2000/svg">
<g id="layer4 1" clip-path="url(#clip0_11_28)">
<path id="Vector" d="M900 -130H0V170H900V-130Z" fill="#022949"/>
<path id="Vector_2" d="M0 66L21.5 68.3C43 70.7 86 75.3 128.8 76C171.7 76.7 214.3 73.3 257.2 72.3C300 71.3 343 72.7 385.8 70.3C428.7 68 471.3 62 514.2 58C557 54 600 52 642.8 52.8C685.7 53.7 728.3 57.3 771.2 57.3C814 57.3 857 53.7 878.5 51.8L900 50V171H878.5C857 171 814 171 771.2 171C728.3 171 685.7 171 642.8 171C600 171 557 171 514.2 171C471.3 171 428.7 171 385.8 171C343 171 300 171 257.2 171C214.3 171 171.7 171 128.8 171C86 171 43 171 21.5 171H0V66Z" fill="#B944FC"/>
<path id="Vector_3" d="M0 104L21.5 103.5C43 103 86 102 128.8 98.7C171.7 95.3 214.3 89.7 257.2 84.5C300 79.3 343 74.7 385.8 77.7C428.7 80.7 471.3 91.3 514.2 92.5C557 93.7 600 85.3 642.8 79.7C685.7 74 728.3 71 771.2 73.5C814 76 857 84 878.5 88L900 92V171H878.5C857 171 814 171 771.2 171C728.3 171 685.7 171 642.8 171C600 171 557 171 514.2 171C471.3 171 428.7 171 385.8 171C343 171 300 171 257.2 171C214.3 171 171.7 171 128.8 171C86 171 43 171 21.5 171H0V104Z" fill="#A236E1"/>
<path id="Vector_4" d="M0 107L21.5 107.7C43 108.3 86 109.7 128.8 110.5C171.7 111.3 214.3 111.7 257.2 109.8C300 108 343 104 385.8 104.5C428.7 105 471.3 110 514.2 111.2C557 112.3 600 109.7 642.8 106.2C685.7 102.7 728.3 98.3 771.2 97C814 95.7 857 97.3 878.5 98.2L900 99V171H878.5C857 171 814 171 771.2 171C728.3 171 685.7 171 642.8 171C600 171 557 171 514.2 171C471.3 171 428.7 171 385.8 171C343 171 300 171 257.2 171C214.3 171 171.7 171 128.8 171C86 171 43 171 21.5 171H0V107Z" fill="#8C28C7"/>
<path id="Vector_5" d="M0 126L21.5 123.8C43 121.7 86 117.3 128.8 117.5C171.7 117.7 214.3 122.3 257.2 123.8C300 125.3 343 123.7 385.8 121.2C428.7 118.7 471.3 115.3 514.2 117.3C557 119.3 600 126.7 642.8 131C685.7 135.3 728.3 136.7 771.2 133.7C814 130.7 857 123.3 878.5 119.7L900 116V171H878.5C857 171 814 171 771.2 171C728.3 171 685.7 171 642.8 171C600 171 557 171 514.2 171C471.3 171 428.7 171 385.8 171C343 171 300 171 257.2 171C214.3 171 171.7 171 128.8 171C86 171 43 171 21.5 171H0V126Z" fill="#761AAD"/>
<path id="Vector_6" d="M0 137L21.5 139.3C43 141.7 86 146.3 128.8 146.7C171.7 147 214.3 143 257.2 140.7C300 138.3 343 137.7 385.8 138C428.7 138.3 471.3 139.7 514.2 141.8C557 144 600 147 642.8 149.3C685.7 151.7 728.3 153.3 771.2 152C814 150.7 857 146.3 878.5 144.2L900 142V171H878.5C857 171 814 171 771.2 171C728.3 171 685.7 171 642.8 171C600 171 557 171 514.2 171C471.3 171 428.7 171 385.8 171C343 171 300 171 257.2 171C214.3 171 171.7 171 128.8 171C86 171 43 171 21.5 171H0V137Z" fill="#610A94"/>
</g>
<defs>
<clipPath id="clip0_11_28">
<rect width="900" height="300" fill="white" transform="translate(0 -130)"/>
</clipPath>
</defs>
</svg>
