<svg width="900" height="170" viewBox="0 0 900 170" fill="none" xmlns="http://www.w3.org/2000/svg">
<g id="layer2Slice1 1" clip-path="url(#clip0_9_10)">
<g id="layer2 1">
<path id="Vector" d="M900 -130H0V170H900V-130Z" fill="#A10A50"/>
<path id="Vector_2" d="M0 62L21.5 63.2C43 64.3 86 66.7 128.8 65C171.7 63.3 214.3 57.7 257.2 56.2C300 54.7 343 57.3 385.8 64C428.7 70.7 471.3 81.3 514.2 83.8C557 86.3 600 80.7 642.8 81C685.7 81.3 728.3 87.7 771.2 86C814 84.3 857 74.7 878.5 69.8L900 65V171H878.5C857 171 814 171 771.2 171C728.3 171 685.7 171 642.8 171C600 171 557 171 514.2 171C471.3 171 428.7 171 385.8 171C343 171 300 171 257.2 171C214.3 171 171.7 171 128.8 171C86 171 43 171 21.5 171H0V62Z" fill="#ED08C7"/>
<path id="Vector_3" d="M0 95L21.5 91C43 87 86 79 128.8 77.8C171.7 76.7 214.3 82.3 257.2 83C300 83.7 343 79.3 385.8 82C428.7 84.7 471.3 94.3 514.2 94.8C557 95.3 600 86.7 642.8 82.2C685.7 77.7 728.3 77.3 771.2 80.2C814 83 857 89 878.5 92L900 95V171H878.5C857 171 814 171 771.2 171C728.3 171 685.7 171 642.8 171C600 171 557 171 514.2 171C471.3 171 428.7 171 385.8 171C343 171 300 171 257.2 171C214.3 171 171.7 171 128.8 171C86 171 43 171 21.5 171H0V95Z" fill="#CD09AD"/>
<path id="Vector_4" d="M0 96L21.5 94.8C43 93.7 86 91.3 128.8 91C171.7 90.7 214.3 92.3 257.2 92.8C300 93.3 343 92.7 385.8 97.8C428.7 103 471.3 114 514.2 115.2C557 116.3 600 107.7 642.8 102.8C685.7 98 728.3 97 771.2 95.7C814 94.3 857 92.7 878.5 91.8L900 91V171H878.5C857 171 814 171 771.2 171C728.3 171 685.7 171 642.8 171C600 171 557 171 514.2 171C471.3 171 428.7 171 385.8 171C343 171 300 171 257.2 171C214.3 171 171.7 171 128.8 171C86 171 43 171 21.5 171H0V96Z" fill="#AE0993"/>
<path id="Vector_5" d="M0 115L21.5 118.8C43 122.7 86 130.3 128.8 132.5C171.7 134.7 214.3 131.3 257.2 128.3C300 125.3 343 122.7 385.8 122.5C428.7 122.3 471.3 124.7 514.2 127.5C557 130.3 600 133.7 642.8 134.5C685.7 135.3 728.3 133.7 771.2 131.7C814 129.7 857 127.3 878.5 126.2L900 125V171H878.5C857 171 814 171 771.2 171C728.3 171 685.7 171 642.8 171C600 171 557 171 514.2 171C471.3 171 428.7 171 385.8 171C343 171 300 171 257.2 171C214.3 171 171.7 171 128.8 171C86 171 43 171 21.5 171H0V115Z" fill="#90087A"/>
<path id="Vector_6" d="M0 154L21.5 151.3C43 148.7 86 143.3 128.8 143C171.7 142.7 214.3 147.3 257.2 146.5C300 145.7 343 139.3 385.8 139C428.7 138.7 471.3 144.3 514.2 144.3C557 144.3 600 138.7 642.8 135.8C685.7 133 728.3 133 771.2 134.2C814 135.3 857 137.7 878.5 138.8L900 140V171H878.5C857 171 814 171 771.2 171C728.3 171 685.7 171 642.8 171C600 171 557 171 514.2 171C471.3 171 428.7 171 385.8 171C343 171 300 171 257.2 171C214.3 171 171.7 171 128.8 171C86 171 43 171 21.5 171H0V154Z" fill="#730761"/>
</g>
</g>
<defs>
<clipPath id="clip0_9_10">
<rect width="900" height="220" fill="white" transform="translate(0 -50)"/>
</clipPath>
</defs>
</svg>
